<?xml version="1.0" standalone="no"?>
<!DOCTYPE svg PUBLIC "-//W3C//DTD SVG 20010904//EN"
 "http://www.w3.org/TR/2001/REC-SVG-20010904/DTD/svg10.dtd">
<svg version="1.0" xmlns="http://www.w3.org/2000/svg"
 width="1000.000000pt" height="1000.000000pt" viewBox="0 0 1000.000000 1000.000000"
 preserveAspectRatio="xMidYMid meet">
<metadata>
Created by potrace 1.11, written by Peter Selinger 2001-2013
</metadata>
<g transform="translate(0.000000,1000.000000) scale(0.100000,-0.100000)"
fill="#000000" stroke="none">
<path d="M0 5000 l0 -5000 5000 0 5000 0 0 5000 0 5000 -5000 0 -5000 0 0
-5000z m3067 838 l23 -21 0 -324 0 -323 300 0 300 0 0 322 c0 395 -11 368 148
368 84 0 109 -3 124 -17 17 -15 18 -55 18 -841 0 -754 -1 -827 -17 -844 -14
-15 -32 -18 -121 -18 -95 0 -108 2 -129 22 l-23 21 0 364 0 363 -300 0 -300 0
0 -362 c0 -441 12 -408 -148 -408 -84 0 -109 3 -124 17 -17 15 -18 55 -18 841
0 754 1 827 17 844 14 15 32 18 121 18 95 0 108 -2 129 -22z m1783 -405 c168
-508 152 -463 158 -438 2 11 67 210 143 443 l140 422 126 0 c116 0 129 -2 150
-22 l23 -21 0 -816 0 -815 -22 -23 c-19 -21 -30 -23 -108 -23 -78 0 -89 2
-109 24 l-22 23 3 555 3 555 -125 -351 -125 -351 -85 -3 -86 -3 -97 273 c-53
150 -109 309 -124 353 l-28 80 3 -553 4 -554 -23 -24 c-20 -22 -30 -24 -108
-24 -73 0 -88 3 -108 22 l-23 21 0 816 0 815 22 23 c20 22 29 23 149 23 l127
0 142 -427z m2280 -433 l0 -850 -565 0 -565 0 0 850 0 850 565 0 565 0 0 -850z"/>
</g>
</svg>
